#!OML:ASF F:\VICON\USERDATA\INSTALL\rory3\rory3.ASF
:FULLY-SPECIFIED
:DEGREES
155
root -11.353 17.6095 2.31564 -174.973 75.3726 -173.341
lowerback 10.7812 0.820389 -3.42728
upperback 0.727041 0.781955 1.19257
thorax -5.35294 0.497509 3.0636
lowerneck -13.5128 -7.60454 -12.8085
upperneck 35.6513 -9.51789 9.31721
head 16.1424 -4.02534 4.72347
rclavicle 2.67987e-014 -8.15017e-015
rhumerus -38.0304 -20.3663 -69.696
rradius 34.89
rwrist 5.85281
rhand -21.4451 6.47959
rfingers 7.12502
rthumb 4.9446 -23.4427
lclavicle 2.67987e-014 -8.15017e-015
lhumerus -37.1922 9.84369 81.0279
lradius 33.1411
lwrist -5.91325
lhand -21.0815 24.9846
lfingers 7.12502
lthumb 5.29563 54.8984
rfemur -5.53685 -5.00872 20.9898
rtibia 35.9528
rfoot -26.409 3.54812
rtoes 11.9273
lfemur -6.16127 2.70477 -22.0701
ltibia 29.6402
lfoot -18.6516 -1.03136
ltoes 5.53496
156
root -11.3399 17.613 2.37382 -175.758 74.9471 -174.267
lowerback 10.7658 0.836887 -3.81807
upperback 0.63476 0.752255 1.17098
thorax -5.44434 0.494291 3.26698
lowerneck -13.4305 -7.62002 -12.9953
upperneck 35.7293 -9.55471 9.52016
head 16.1991 -4.03605 4.84993
rclavicle 1.12065e-014 -4.17448e-015
rhumerus -38.2496 -20.897 -69.5983
rradius 34.8533
rwrist 6.13673
rhand -21.6531 6.42912
rfingers 7.12502
rthumb 4.74375 -23.4978
lclavicle 1.12065e-014 -4.17448e-015
lhumerus -37.067 9.17613 81.1984
lradius 33.0111
lwrist -5.56099
lhand -21.6803 25.3635
lfingers 7.12502
lthumb 4.71751 55.291
rfemur -5.94879 -5.59362 20.7469
rtibia 36.665
rfoot -26.2287 4.87161
rtoes 12.17
lfemur -6.24184 3.12248 -21.8859
ltibia 29.3836
lfoot -18.38 -1.76136
ltoes 0.986423
157
root -11.3307 17.6173 2.42985 -178.09 74.5934 -176.99
lowerback 10.6324 0.902981 -4.6333
upperback 0.469766 0.729636 0.998015
thorax -5.55072 0.504718 3.55064
lowerneck -13.3487 -7.64872 -13.2087
upperneck 35.7934 -9.6133 9.74829
head 16.2571 -4.05659 4.98824
rclavicle 4.73356e-014 -1.16289e-014
rhumerus -38.45 -21.3607 -69.5637
rradius 34.7913
rwrist 6.27378
rhand -21.7903 6.51542
rfingers 7.12502
rthumb 4.61125 -23.4144
lclavicle 4.73356e-014 -1.16289e-014
lhumerus -37.0263 9.09577 81.1096
lradius 32.8897
lwrist -5.87174
lhand -21.7906 25.4645
lfingers 7.12502
lthumb 4.61101 55.3943
rfemur -6.66791 -6.13995 19.9299
rtibia 37.5672
rfoot -25.9675 6.11427
rtoes 11.7183
lfemur -6.49417 3.5393 -22.2921
ltibia 29.0845
lfoot -18.1714 -3.0852
ltoes 1.95435
158
root -11.3037 17.6128 2.48767 -177.96 74.2458 -176.294
lowerback 11.1066 0.955614 -4.58505
upperback 0.632933 0.792653 1.00673
thorax -5.64961 0.536569 3.52059
lowerneck -13.3317 -7.70055 -13.109
upperneck 35.7418 -9.75707 9.85145
head 16.251 -4.08813 4.98773
rclavicle -1.77415e-014 1.98785e-014
rhumerus -38.6111 -21.7943 -69.7566
rradius 34.7563
rwrist 6.24825
rhand -21.7 6.67414
rfingers 7.12502
rthumb 4.69849 -23.2538
lclavicle -1.77415e-014 1.98785e-014
lhumerus -36.8569 8.96123 80.9316
lradius 32.7174
lwrist -6.15847
lhand -21.6787 25.1368
lfingers 7.12502
lthumb 4.719 55.0642
rfemur -6.42861 -6.36028 20.0951
rtibia 38.5188
rfoot -25.939 7.14979
rtoes 10.2333
lfemur -5.78294 3.90757 -21.6362
ltibia 28.8256
lfoot -17.8921 -4.55512
ltoes 5.149
159
root -11.2874 17.6052 2.53592 -180.944 73.7809 -179.276
lowerback 11.2163 0.965271 -5.38872
upperback 0.703939 0.685325 0.699663
thorax -5.63192 0.499809 3.66824
lowerneck -13.3207 -7.71962 -13.062
upperneck 35.6224 -9.84786 9.98395
head 16.2085 -4.10373 5.0152
rclavicle 3.51476e-014 4.96962e-015
rhumerus -38.7017 -22.0996 -70.058
rradius 34.7535
rwrist 6.10109
rhand -21.7677 6.53587
rfingers 7.12502
rthumb 4.63306 -23.3935
lclavicle 3.51476e-014 4.96962e-015
lhumerus -36.6414 8.51147 80.8411
lradius 32.6511
lwrist -6.01773
lhand -21.3474 25.2942
lfingers 7.12502
lthumb 5.0389 55.2143
rfemur -6.752 -7.05007 19.0101
rtibia 39.6002
rfoot -25.8484 8.65241
rtoes 7.5224
lfemur -5.56587 3.98658 -22.2783
ltibia 28.5963
lfoot -17.7821 -5.07384
ltoes 4.45132
